<svg xmlns="http://www.w3.org/2000/svg" viewBox="0 0 64 64" role="img" aria-label="Football icon">
  <defs>
    <radialGradient id="shadow" cx="50%" cy="45%" r="60%">
      <stop offset="0%" stop-color="#000" stop-opacity="0" />
      <stop offset="100%" stop-color="#000" stop-opacity="1" />
    </radialGradient>
  </defs>
  <ellipse cx="32" cy="32" rx="26" ry="18" fill="#8b4513" stroke="#4a2c0a" stroke-width="2" />
  <ellipse cx="32" cy="32" rx="26" ry="18" fill="url(#shadow)" opacity="0.12" />
  <path d="M12 26c4.8 1.5 11.4 2.4 20 2.4S47.2 27.5 52 26" fill="none" stroke="#d69c67" stroke-width="2" stroke-linecap="round" />
  <path d="M12 38c4.8-1.5 11.4-2.4 20-2.4S47.2 36.5 52 38" fill="none" stroke="#d69c67" stroke-width="2" stroke-linecap="round" />
  <rect x="14" y="24" width="6" height="16" rx="2" fill="#fff" transform="rotate(12 17 32)" />
  <rect x="44" y="24" width="6" height="16" rx="2" fill="#fff" transform="rotate(-12 47 32)" />
  <rect x="26" y="23" width="12" height="18" rx="2" fill="#fff" opacity="0.2" />
  <rect x="26" y="29" width="12" height="4" rx="1" fill="#fff" />
  <rect x="28" y="27" width="2" height="8" rx="1" fill="#fff" />
  <rect x="32" y="27" width="2" height="8" rx="1" fill="#fff" />
  <rect x="36" y="27" width="2" height="8" rx="1" fill="#fff" />
</svg>
